Coordinates
version=1
nRows=17
nColumns=36
inDegrees=yes

Units are S.I. units (second, meters, Newtons, ...)
If the header above contains a line with 'inDegrees', this indicates whether rotational values are in degrees (yes) or radians (no).

endheader
time	pelvis_tilt	pelvis_list	pelvis_rotation	pelvis_tx	pelvis_ty	pelvis_tz	hip_flexion_r	hip_adduction_r	hip_rotation_r	knee_angle_r	knee_angle_r_beta	ankle_angle_r	subtalar_angle_r	mtp_angle_r	hip_flexion_l	hip_adduction_l	hip_rotation_l	knee_angle_l	knee_angle_l_beta	ankle_angle_l	subtalar_angle_l	mtp_angle_l	lumbar_extension	lumbar_bending	lumbar_rotation	arm_flex_r	arm_add_r	arm_rot_r	elbow_flex_r	pro_sup_r	arm_flex_l	arm_add_l	arm_rot_l	elbow_flex_l	pro_sup_l
      4.45762710	     -0.42136647	     -2.78569381	     -9.50930354	      0.25985903	      1.03566937	     -0.20379344	     13.03864329	     -6.38032479	     -1.89462021	      6.91999584	      0.12077671	      0.75099195	     -2.76984973	     -7.49999987	     11.95571566	     -0.39554348	      1.35024578	      8.28789837	      0.14465111	      1.04918053	     -9.81887803	     -7.49999987	    -13.86480423	      1.07365181	     -3.57246630	    177.27616702	   -166.93508495	    170.49241007	     57.37050677	     90.65523144	     14.69612881	    -21.88195352	     -2.36894800	     98.95410683	     90.38675373
      4.47457630	     -0.68547469	     -2.91003492	     -9.79210970	      0.24729067	      1.03080087	     -0.20680202	     14.44470611	     -6.28233126	     -2.03289626	      7.96052865	      0.13893744	      1.18857001	     -2.46775216	     -7.49999987	     13.07396780	     -0.51288132	      1.48250041	      8.76831619	      0.15303599	      0.60558532	    -10.40468059	     -7.49999987	    -14.14119674	      1.49035465	     -3.81839994	    177.24752342	   -166.65029718	    169.56120661	     58.33937163	     90.49136853	     14.64914304	    -22.13075258	     -3.32578061	     98.77099239	     90.21895202
      4.49152540	     -0.74609851	     -3.15074761	    -10.13361642	      0.23770421	      1.03359143	     -0.20548043	     15.61746552	     -5.95195725	     -2.44892879	      9.44170986	      0.16478892	      1.36836375	     -3.29567306	     -7.49999987	     13.99265454	     -0.90354489	      1.40055225	      9.37862368	      0.16368786	      0.00538869	    -11.08090557	     -7.49999987	    -14.77529394	      1.82217337	     -3.99066604	    177.59768536	   -166.25360323	    168.78653362	     58.88631649	     90.42004868	     14.49298525	    -22.70184628	     -4.08168789	     98.33879344	     90.16034546
      4.50847460	     -1.06963637	     -3.69774982	    -10.63620908	      0.22824929	      1.03244720	     -0.19538939	     17.04658877	     -4.94167984	     -3.41084339	     11.74499524	      0.20498884	      1.03989593	     -6.03653971	     -7.49999987	     15.13397184	     -2.06497647	      1.07135596	     10.03574943	      0.17515687	     -0.64152047	    -11.59445481	     -7.49999987	    -15.20868285	      2.27262583	     -3.91031403	    177.82449871	   -166.23235568	    168.31830576	     59.82220259	     90.02496327	     13.85444746	    -23.65669188	     -5.16580320	     98.09944411	     89.68016324
      4.52542370	     -1.33046160	     -4.35271595	    -11.52988997	      0.21835412	      1.03523271	     -0.19459166	     18.77394568	     -3.78062591	     -4.98131738	     15.17760838	      0.26489924	      0.12662906	    -10.99743266	     -7.49999987	     16.23413965	     -3.41362146	      0.20465430	     10.88187803	      0.18992460	     -1.05661595	    -11.74551435	     -7.49999987	    -15.78894569	      2.78725703	     -3.51016962	    178.53270689	   -166.12949289	    168.17587133	     60.02409310	     89.62745387	     12.94299400	    -24.61863725	     -6.57040564	     97.20473846	     89.11490285
      4.54237290	     -1.19492551	     -4.94601242	    -12.26729777	      0.21361405	      1.04323232	     -0.19001015	     19.72917354	     -2.67089221	     -7.09045329	     19.16737347	      0.33453378	     -1.34919613	    -15.87565207	     -7.49999987	     16.31719393	     -4.67276589	     -0.58354390	     11.02048363	      0.19234372	     -2.02803964	    -11.76816931	     -7.49999987	    -16.49838380	      3.07005544	     -3.55288525	    179.81081738	   -166.05243907	    169.53007111	     58.62268821	     89.07355802	     11.75332217	    -25.39687561	     -8.08877387	     95.34079392	     87.89257450
      4.55932200	     -0.95821707	     -5.35101507	    -12.86908216	      0.20850340	      1.04203349	     -0.19426784	     20.65453634	     -2.36508765	     -8.91792509	     23.56054724	      0.41120912	     -2.39394506	    -20.69055687	     -7.49999987	     16.28996102	     -5.46881710	     -1.57779433	     11.16709557	      0.19490259	     -2.37734287	    -11.31467083	     -7.49999987	    -17.16570809	      3.28996587	     -2.84742856	    179.92896179	   -165.99888577	    169.50543995	     57.54361415	     88.31605971	     10.87291977	    -25.50571718	     -9.19008437	     93.17044346	     87.00911372
      4.57627120	     -0.42920605	     -5.36901647	    -13.37852081	      0.20845625	      1.03697029	     -0.19452015	     20.75955255	     -2.58820570	    -11.06861614	     29.10061863	      0.50790161	     -2.86503902	    -26.23041323	     -7.49999987	     15.77345797	     -5.66876706	     -2.37543047	     11.24249477	      0.19621855	     -2.78381269	    -11.56776302	     -7.49999987	    -17.33326372	      2.99772521	     -2.27721120	    179.65569795	   -166.14901180	    169.95019242	     55.69616209	     87.78212052	      9.28356930	    -25.40123115	    -10.47091443	     90.27762987	     86.20535568
      4.59322030	      0.03915907	     -4.72943306	    -13.72694391	      0.20334579	      1.03296146	     -0.19822642	     20.37650808	     -3.35475306	    -12.76725154	     34.90615073	      0.60922726	     -0.50941284	    -29.88507549	     -7.49999987	     15.66373380	     -5.01657087	     -3.44944918	     11.64119850	      0.20317724	     -2.72899248	    -11.62623286	     -7.49999987	    -17.10024555	      2.27009174	     -1.79898058	    178.96982693	   -166.16158980	    169.82100476	     54.88049418	     87.24408472	      7.22672301	    -25.23284530	    -11.30989330	     87.60516537	     85.56056750
      4.61016950	      0.54986038	     -4.40035829	    -13.88079113	      0.19440263	      1.03783275	     -0.19782173	     20.07337845	     -3.97085602	    -14.46741716	     41.34476701	      0.72160231	      1.17056745	    -32.57658143	     -7.49999987	     15.48693375	     -4.60670414	     -4.29566420	     11.71518954	      0.20446863	     -2.62123481	    -10.75547851	     -7.49999987	    -17.10689427	      2.08917575	     -1.73513978	    178.20396481	   -166.50033434	    168.95394377	     54.13136219	     86.69281234	      5.04098854	    -24.62612251	    -11.84614116	     84.89335301	     85.03898640
      4.62711860	      1.16333115	     -3.93172063	    -13.52217413	      0.19741202	      1.03157031	     -0.19338600	     19.10434734	     -4.84936674	    -14.53918574	     47.69970212	      0.83251685	      5.15796827	    -33.22619316	     -7.49999987	     15.11079305	     -3.96985693	     -4.68192977	     11.57525754	      0.20202636	     -2.21963910	     -9.64700549	     -7.49999987	    -16.92163163	      1.82663041	     -1.55774190	    176.88781775	   -166.64169084	    167.88309452	     52.80832098	     85.59318098	      3.65356857	    -24.04519020	    -11.33018589	     82.18108276	     84.14780447
      4.64406780	      1.45536775	     -3.18133166	    -13.13290764	      0.19643085	      1.02643290	     -0.18343802	     16.38327941	     -5.12720375	    -14.12705802	     50.77759165	      0.88623616	      8.54357310	    -32.51685161	     -7.49999987	     14.93201293	     -3.39452890	     -5.45144618	     11.29054999	      0.19705727	     -2.22418119	     -8.25631129	     -7.49999987	    -15.80035219	      1.07540673	     -1.63839695	    174.80715957	   -167.23261521	    167.42586474	     51.92962939	     85.17667116	      1.77760860	    -23.71901958	    -11.45222372	     79.49391796	     83.81309117
      4.66101690	      1.81140065	     -2.68391403	    -12.96158438	      0.18512573	      1.02223916	     -0.18243165	     13.85638661	     -5.81101100	    -14.48196799	     54.70977391	      0.95486569	      8.20011558	    -31.98551828	     -7.49999987	     14.92526416	     -3.10179272	     -6.38434687	     11.16407525	      0.19484987	     -1.55530164	     -6.10741744	     -7.49999987	    -14.93408192	      0.70177283	     -1.40770030	    173.56767211	   -167.63564703	    167.49867665	     50.51075888	     84.94939083	      0.75317489	    -23.07540450	    -11.17261406	     75.85294439	     83.67208364
      4.67796610	      1.97391308	     -2.46811018	    -12.70757392	      0.16636172	      1.02653185	     -0.19041992	     11.75790364	     -6.39498452	    -13.87529135	     57.53285079	      1.00413767	      6.05228913	    -31.26271328	     -7.49999987	     15.77346292	     -2.88753229	     -6.84724184	     11.28942877	      0.19703770	     -1.34185772	     -5.31873907	     -7.49999987	    -14.63627959	      0.82887137	     -1.46069897	    173.63435972	   -167.80028088	    167.83928049	     49.10727592	     84.70791217	      0.87885865	    -22.21144619	    -10.27137847	     71.30510669	     83.53904918
      4.69491530	      2.19619922	     -2.58570655	    -12.67287479	      0.15532511	      1.03707081	     -0.18929082	     10.17570498	     -6.57969395	    -13.41600159	     58.41540515	      1.01954115	      4.12146063	    -31.06813909	     -7.49999987	     16.20287226	     -3.03187956	     -6.99393982	     10.87562934	      0.18981554	     -1.76328952	     -4.21819246	     -7.49999987	    -14.75837796	      1.28669329	     -0.42067595	    173.87595757	   -167.86239992	    168.27800996	     47.59452572	     84.36095863	      1.68808342	    -21.14714263	     -8.27108502	     65.76321018	     83.59243363
      4.71186440	      2.61198556	     -2.90687741	    -12.74130952	      0.14507149	      1.03358512	     -0.17858702	      8.39634000	     -6.19185514	    -13.14137892	     58.28391827	      1.01724627	      1.33985808	    -32.14126716	     -7.49999987	     16.33661881	     -3.70405795	     -7.33422169	     10.65700176	      0.18599977	     -2.71501663	     -3.78296615	     -7.49999987	    -15.37434123	      1.72727405	     -0.24898995	    174.79480665	   -168.53246949	    169.14448067	     45.18618242	     84.89849375	      1.44371570	    -19.76216194	     -8.98873487	     62.06140706	     83.97488271
      4.72881360	      2.92229446	     -2.86883406	    -13.23936502	      0.14796501	      1.02842428	     -0.17359618	      5.97841124	     -6.56423552	    -13.44178677	     56.85992800	      0.99239296	     -0.83851649	    -33.11417911	     -7.49999987	     15.81627489	     -4.00428661	     -7.53135606	      9.72925174	      0.16980748	     -3.36618522	     -3.61531993	     -7.49999987	    -15.18306764	      1.75184306	     -0.10606951	    175.05194857	   -169.07174369	    170.97557394	     42.75653274	     86.13081946	     -0.28868966	    -18.50235458	     -8.76057596	     58.81904961	     84.98347448
